<?xml version="1.0" encoding="utf-8"?>
<!-- Generator: Adobe Illustrator 25.2.0, SVG Export Plug-In . SVG Version: 6.00 Build 0)  -->
<svg version="1.1" id="Layer_1" xmlns="http://www.w3.org/2000/svg" xmlns:xlink="http://www.w3.org/1999/xlink" x="0px" y="0px"
	 viewBox="0 0 436.4 424.5" style="enable-background:new 0 0 436.4 424.5;" xml:space="preserve">
<g>
	<path d="M407.2,29.2C388.5,10.5,363.1,0,336.7,0s-51.8,10.5-70.5,29.2L183,112.3c-18.7,18.7-29.2,44.1-29.2,70.5
		s10.5,51.8,29.2,70.5l12.4-12.4c-15.4-15.4-24.1-36.3-24.1-58.2c0-21.8,8.7-42.7,24.1-58.2l83.1-83.1l0,0
		c20.9-20.2,50.9-27.9,78.9-20.3s50,29.6,57.6,57.6c7.7,28.1,0,58.1-20.3,78.9l-83,83.4l12.4,12.4l83.1-83.1l0,0
		c18.7-18.7,29.2-44.1,29.2-70.5C436.4,73.2,425.9,47.9,407.2,29.2L407.2,29.2z"/>
	<path d="M239.9,184.6c15.4,15.4,24.1,36.3,24.1,58.2c0,21.8-8.7,42.7-24.1,58.2l-83.1,83l0,0c-20.9,20.2-50.9,27.9-78.9,20.3
		s-50-29.6-57.6-57.6c-7.7-28.1,0-58.1,20.3-78.9l83.1-83.1l-12.4-12.4l-83.1,83.1c-24.6,25.3-34,61.7-24.7,95.7
		s35.9,60.6,69.9,69.9s70.4,0,95.7-24.6l83.1-83.2c18.7-18.7,29.2-44.1,29.2-70.5s-10.5-51.8-29.2-70.5L239.9,184.6z"/>
</g>
</svg>
