<?xml version="1.0" encoding="utf-8"?>
<!-- Generator: Adobe Illustrator 25.2.0, SVG Export Plug-In . SVG Version: 6.00 Build 0)  -->
<svg version="1.1" id="Layer_1" xmlns="http://www.w3.org/2000/svg" xmlns:xlink="http://www.w3.org/1999/xlink" x="0px" y="0px"
	 viewBox="0 0 439.6 326.6" style="enable-background:new 0 0 439.6 326.6;" xml:space="preserve">
<path d="M58.3,166.6c14.8-19.4,38.3-28,65.1-28c49.6,0,85.4,33.5,85.4,89.9c0,53.1-33.5,98.1-103.8,98.1c-64.6,0-105-46.2-105-121.2
	C0,105.1,60.3,26.3,169.4,0.3c6.4-1.5,13.5,2.4,15.8,8.8l2.2,6.3c2.2,6.3-1.2,12.5-7.6,14.4c-72,20.2-115.6,64.1-126.5,135.1
	C52.4,171.4,54.3,171.9,58.3,166.6L58.3,166.6z M289.1,166.6c14.8-19.4,38.3-28,65.1-28c49.6,0,85.4,33.5,85.4,89.9
	c0,53.1-33.5,98.1-103.8,98.1c-64.6,0-105-46.2-105-121.2c0-100.3,60.3-179.1,169.5-205.1c6.4-1.5,13.5,2.4,15.8,8.8l2.2,6.3
	c2.2,6.3-1.2,12.5-7.6,14.4c-72,20.2-115.6,64.1-126.5,135.1C283.2,171.4,285.1,171.9,289.1,166.6L289.1,166.6z"/>
</svg>
