<?xml version="1.0" encoding="utf-8"?>
<!-- Generator: Adobe Illustrator 25.2.0, SVG Export Plug-In . SVG Version: 6.00 Build 0)  -->
<svg version="1.1" id="Layer_1" xmlns="http://www.w3.org/2000/svg" xmlns:xlink="http://www.w3.org/1999/xlink" x="0px" y="0px"
	 viewBox="0 0 296.2 560.4" style="enable-background:new 0 0 296.2 560.4;" xml:space="preserve">
<path d="M5,555.7c3,3,7,4.7,11.2,4.7c4.2,0,8.3-1.7,11.2-4.7l264.1-264.1c3-3,4.7-7,4.7-11.2s-1.7-8.2-4.7-11.2L27.4,5
	c-2.9-3.1-7-4.9-11.3-5C11.8-0.1,7.7,1.6,4.6,4.6c-3,3-4.7,7.2-4.6,11.5c0.1,4.3,1.9,8.4,5,11.3l252.9,252.9L5,533.3
	c-3,3-4.7,7-4.7,11.2C0.4,548.7,2,552.7,5,555.7L5,555.7z"/>
</svg>
